<svg xmlns="http://www.w3.org/2000/svg" xmlns:xlink="http://www.w3.org/1999/xlink" width="1602" height="666" viewBox="0 0 1602 666">
  <defs>
    <clipPath id="clip-Logo">
      <rect width="1602" height="666"/>
    </clipPath>
  </defs>
  <g id="Logo" clip-path="url(#clip-Logo)">
    <g id="Group_3" data-name="Group 3" transform="translate(-154.563 -116.471)">
      <path id="Path_1" data-name="Path 1" d="M445.252,227.344a74.6,74.6,0,0,1,13.628-.735l33.961,1.29a39.638,39.638,0,0,1,37.7,45.468l-5.018,33.611a75.963,75.963,0,0,1-13.742,33.378,220.037,220.037,0,0,1,70.222,92.669l5.783-27.259a39.3,39.3,0,0,1,38.78-31.416h51.9a38.274,38.274,0,0,1,28.271,11.824q4.029-.294,8.129-.3c29.572,0,51.07,11.88,64.856,30.791,21.31-18.923,48.391-30.791,80.753-30.791,26.749,0,48.93,8.92,62.961,25.459,19.362-15.719,43.055-25.459,70.746-25.459a91.891,91.891,0,0,1,23.582,2.938,40.663,40.663,0,0,1,9.574-1.134h52.26a38.439,38.439,0,0,1,30.836,14.729,41.723,41.723,0,0,1,5.047,7.874,117.721,117.721,0,0,1,72.6-24.406,98.137,98.137,0,0,1,37.664,7.043l8.262-38.739a39.046,39.046,0,0,1,33.463-31.017l53.339-7.209a39.642,39.642,0,0,1,44.068,47.593l-4.988,23.3c18.058,2.01,33.37,8.979,44.91,19.846l11.215-52.522a39.051,39.051,0,0,1,33.463-31.005l53.339-7.209A39.649,39.649,0,0,1,1546.9,363.5l-5.151,24.181h47.109a39.144,39.144,0,0,1,18.612,4.489,39.9,39.9,0,0,1,18.509-4.489h52.26a39.643,39.643,0,0,1,38.795,47.8L1673.065,644.52c-11.459,54.466-46.754,92.754-104.39,92.754-44.119,0-82.172-33.311-82.172-78.565a98.523,98.523,0,0,1,1.168-15.434,106.542,106.542,0,0,1-35.769,6.06c-15.874,0-30.274-4.039-42.272-11.44a91.623,91.623,0,0,1-45.309,11.44c-23.423,0-43.525-7.73-57.98-21.18a39.288,39.288,0,0,1-33.921,19.019h-51.9a38.452,38.452,0,0,1-23.165-7.361,133.044,133.044,0,0,1-49.995,9.522c-21.28,0-40.956-5.022-56.89-15.4-15.172,8.68-32.532,13.243-51.957,13.243-15.5,0-29.369-3.924-40.86-11.034a93.282,93.282,0,0,1-48.162,13.2c-23.1,0-42.771-7.738-57.566-21.11a133.189,133.189,0,0,1-72.535,21.11c-30.987,0-55.8-10.3-72.424-28.633-19.429,17.644-44.788,28.633-76.784,28.633-.44,0-.879,0-1.319-.007l-9.289,43.591A38.855,38.855,0,0,1,630,723.218L575.578,736.2A39.641,39.641,0,0,1,527.6,689.4l3.673-17.312A218.985,218.985,0,0,1,393.018,733.73c-.854.144-1.715.288-2.579.425a37.779,37.779,0,0,1-12.471,0C271.619,717.217,193.176,625.165,193.176,517.372A219.78,219.78,0,0,1,303.955,326.605c-19.983-22.352-29.675-53.693-23.312-84.034L291,193.2a39.649,39.649,0,0,1,51.155-29.527l47.933,15.715C414.475,187.389,433.956,205.266,445.252,227.344Z" transform="translate(0 0)" fill="#e40063" fill-rule="evenodd"/>
      <path id="Path_2" data-name="Path 2" d="M354.363,229.9,294.177,513.541l54.418-12.977,18.745-87.94c3.961,6.851,12.611,12.973,30.636,12.973,69.915,0,88.656-78.565,88.656-127.222,0-42.889-19.462-56.945-43.972-56.945a62.633,62.633,0,0,0-42.168,15.5l5.768-27.03ZM386.8,394.245c-8.284,0-12.253-4.327-13.694-8.288L394.37,285.04c6.847-11.532,16.938-17.659,24.868-17.659,6.485,0,18.017,2.162,18.017,29.915C437.255,331.169,424.643,394.245,386.8,394.245Z" transform="translate(272.207 184.092)" fill="#fff" fill-rule="evenodd"/>
      <path id="Path_3" data-name="Path 3" d="M400.767,356.638c0-4.323.362-9.367.724-14.418,43.251-2.52,82.892-33.873,82.892-74.6,0-18.017-7.568-34.6-39.641-34.6-73.887,0-97.31,85.778-97.31,126.864,0,40.724,22.344,57.3,56.225,57.3,47.929,0,78.565-33.514,99.11-66.671H490.51c-18.017,20.541-35.318,36.4-63.792,36.4-17.3,0-25.951-5.768-25.951-30.274ZM456.633,266.9c0,29.191-24.147,56.221-52.26,58.024,7.568-35.318,25.23-72.8,43.251-72.8C454.471,252.123,456.633,257.887,456.633,266.9Z" transform="translate(415.734 192.504)" fill="#fff" fill-rule="evenodd"/>
      <path id="Path_4" data-name="Path 4" d="M510.663,234.819l-3.6,16.942c-2.527-16.58-17.663-18.742-29.557-18.742-62.71,0-92.621,77.49-92.621,126.143,0,42.889,23.423,58.024,47.929,58.024,25.592,0,42.893-16.935,53.7-33.514,2.882,20.541,15.856,31.353,35.318,31.353s51.9-5.768,72.442-64.509H579.145c-5.41,18.017-15.139,31.711-29.195,31.711-10.091,0-14.777-3.244-14.777-13.332a49.964,49.964,0,0,1,1.441-11.536l26.309-122.54Zm-21.982,20.548c11.17,0,14.414,9.371,14.777,13.694l-17.3,81.455c-4.323,20.9-19.462,31.711-29.912,31.711-6.489,0-18.025-.358-18.025-28.112C438.221,320.242,458.045,255.367,488.681,255.367Z" transform="translate(516.676 192.504)" fill="#fff" fill-rule="evenodd"/>
      <path id="Path_5" data-name="Path 5" d="M539.627,290.685a28.817,28.817,0,0,0,14.418,4.327c10.45,0,19.1-12.615,19.1-30.274,0-15.5-7.93-31.719-40.007-31.719-73.159,0-96.948,85.778-96.948,126.864,0,40.724,22.344,57.3,56.224,57.3,47.933,0,78.569-33.514,99.11-66.671H579.268c-18.017,20.541-35.318,36.4-63.788,36.4-17.3,0-27.388-6.123-27.388-30.636,0-39.279,22.7-104.154,47.571-104.154,6.847,0,10.091,5.044,10.091,13.332,0,6.13-2.52,17.3-6.126,25.23Z" transform="translate(654.946 192.504)" fill="#fff" fill-rule="evenodd"/>
      <path id="Path_6" data-name="Path 6" d="M588.7,335.819c0,23.065-16.218,67.395-16.218,91.9,0,20.545,11.174,40.724,42.527,40.724,19.1,0,46.857-7.568,67.036-66.671H666.908c-7.926,18.738-14.418,31.711-30.274,31.711-10.812,0-14.418-6.127-14.418-15.139,0-20.179,17.3-63.788,17.3-92.983,0-28.829-16.938-40.724-40.007-40.724-11.17,0-27.03,2.882-42.168,20.183L576.8,214l-53.335,7.209L471.205,466.285h51.9L547.612,350.6c5.406-18.017,15.135-33.156,28.112-33.156,8.647,0,12.974,6.489,12.974,18.379Z" transform="translate(749.314 141.243)" fill="#fff" fill-rule="evenodd"/>
      <path id="Path_7" data-name="Path 7" d="M564.836,221.208,526.27,401.776a118.025,118.025,0,0,0-2.882,23.423c0,30.274,16.938,43.247,38.562,43.247,19.462,0,55.142-7.93,75.683-66.671H622.5c-5.406,18.017-18.38,31.711-32.436,31.711-10.091,0-14.777-3.244-14.777-13.332a50,50,0,0,1,1.445-11.536L618.171,214Z" transform="translate(889.952 141.243)" fill="#fff" fill-rule="evenodd"/>
      <path id="Path_8" data-name="Path 8" d="M576.822,233.506,552.313,349.2a118.312,118.312,0,0,0-2.882,23.423c0,30.274,16.938,43.247,38.562,43.247,12.256,0,28.474-3.241,43.971-20.9l-3.606,15.859c-34.235,10.091-62.347,20.545-62.347,54.063,0,23.423,20.545,38.924,42.527,38.924,23.785,0,54.783-9.733,65.6-61.272L718.1,233.506h-52.26L641.335,349.2c-5.406,18.017-14.777,31.711-28.833,31.711-8.292,0-10.812-7.568-10.812-15.856a38.345,38.345,0,0,1,1.083-9.012l25.947-122.54Zm9.009,226.336c0-19.462,17.3-29.912,40-37.479l-4.323,21.262c-4.682,21.269-14.056,28.112-21.262,28.112C592.315,471.736,585.831,464.893,585.831,459.842Z" transform="translate(960.138 193.816)" fill="#fff" fill-rule="evenodd"/>
      <g id="Group_1" data-name="Group 1" transform="translate(232.819 339.74)">
        <path id="Path_9" data-name="Path 9" d="M320.238,213.668a179.921,179.921,0,0,1-75.465,340.47c87.3-13.786,153.686-87.455,157.751-176.588A187.65,187.65,0,0,0,320.238,213.668Z" transform="translate(-93.76 -199.389)" fill="#ed86ad" fill-rule="evenodd"/>
        <ellipse id="Ellipse_1" data-name="Ellipse 1" cx="151.384" cy="177.631" rx="151.384" ry="177.631" fill="#ed86ad"/>
      </g>
      <path id="Path_10" data-name="Path 10" d="M238.508,172.35l47.929,15.719C312.8,196.716,329.71,226,324.012,253.158l-10.354,49.363-47.925-15.715c-26.368-8.646-43.273-37.93-37.579-65.085Z" transform="translate(91.294 28.995)" fill="#7dc061" fill-rule="evenodd"/>
      <path id="Path_11" data-name="Path 11" d="M330.725,191.213l-33.962-1.286c-18.682-.706-36.219,13.838-38.979,32.328L252.77,255.87l33.965,1.29c18.679.706,36.219-13.842,38.976-32.332Z" transform="translate(160.611 76.3)" fill="#7dc061" fill-rule="evenodd"/>
    </g>
  </g>
</svg>
